<svg width="960" height="136" class="RdYlGn"><g transform="translate(29.5,16)"><text transform="translate(-6,59.5)rotate(-90)" style="text-anchor: middle;">2016</text><rect class="day q6-11" width="17" height="17" x="0" y="85"><title>2016-01-01</title></rect><rect class="day q6-11" width="17" height="17" x="0" y="102"><title>2016-01-02</title></rect><rect class="day q6-11" width="17" height="17" x="17" y="0"><title>2016-01-03</title></rect><rect class="day q6-11" width="17" height="17" x="17" y="17"><title>2016-01-04</title></rect><rect class="day q6-11" width="17" height="17" x="17" y="34"><title>2016-01-05</title></rect><rect class="day q6-11" width="17" height="17" x="17" y="51"><title>2016-01-06</title></rect><rect class="day q6-11" width="17" height="17" x="17" y="68"><title>2016-01-07</title></rect><rect class="day q6-11" width="17" height="17" x="17" y="85"><title>2016-01-08</title></rect><rect class="day q6-11" width="17" height="17" x="17" y="102"><title>2016-01-09</title></rect><rect class="day q6-11" width="17" height="17" x="34" y="0"><title>2016-01-10</title></rect><rect class="day q6-11" width="17" height="17" x="34" y="17"><title>2016-01-11</title></rect><rect class="day q6-11" width="17" height="17" x="34" y="34"><title>2016-01-12</title></rect><rect class="day q6-11" width="17" height="17" x="34" y="51"><title>2016-01-13</title></rect><rect class="day q6-11" width="17" height="17" x="34" y="68"><title>2016-01-14</title></rect><rect class="day q6-11" width="17" height="17" x="34" y="85"><title>2016-01-15</title></rect><rect class="day q6-11" width="17" height="17" x="34" y="102"><title>2016-01-16</title></rect><rect class="day q6-11" width="17" height="17" x="51" y="0"><title>2016-01-17</title></rect><rect class="day q6-11" width="17" height="17" x="51" y="17"><title>2016-01-18</title></rect><rect class="day q6-11" width="17" height="17" x="51" y="34"><title>2016-01-19</title></rect><rect class="day q6-11" width="17" height="17" x="51" y="51"><title>2016-01-20</title></rect><rect class="day q6-11" width="17" height="17" x="51" y="68"><title>2016-01-21</title></rect><rect class="day q6-11" width="17" height="17" x="51" y="85"><title>2016-01-22</title></rect><rect class="day q6-11" width="17" height="17" x="51" y="102"><title>2016-01-23</title></rect><rect class="day q6-11" width="17" height="17" x="68" y="0"><title>2016-01-24</title></rect><rect class="day q6-11" width="17" height="17" x="68" y="17"><title>2016-01-25</title></rect><rect class="day q6-11" width="17" height="17" x="68" y="34"><title>2016-01-26</title></rect><rect class="day q6-11" width="17" height="17" x="68" y="51"><title>2016-01-27</title></rect><rect class="day q6-11" width="17" height="17" x="68" y="68"><title>2016-01-28</title></rect><rect class="day q6-11" width="17" height="17" x="68" y="85"><title>2016-01-29</title></rect><rect class="day q6-11" width="17" height="17" x="68" y="102"><title>2016-01-30</title></rect><rect class="day q6-11" width="17" height="17" x="85" y="0"><title>2016-01-31</title></rect><rect class="day q6-11" width="17" height="17" x="85" y="17"><title>2016-02-01</title></rect><rect class="day q6-11" width="17" height="17" x="85" y="34"><title>2016-02-02</title></rect><rect class="day q6-11" width="17" height="17" x="85" y="51"><title>2016-02-03</title></rect><rect class="day q6-11" width="17" height="17" x="85" y="68"><title>2016-02-04</title></rect><rect class="day q6-11" width="17" height="17" x="85" y="85"><title>2016-02-05</title></rect><rect class="day q6-11" width="17" height="17" x="85" y="102"><title>2016-02-06</title></rect><rect class="day q6-11" width="17" height="17" x="102" y="0"><title>2016-02-07</title></rect><rect class="day q6-11" width="17" height="17" x="102" y="17"><title>2016-02-08</title></rect><rect class="day q6-11" width="17" height="17" x="102" y="34"><title>2016-02-09</title></rect><rect class="day q6-11" width="17" height="17" x="102" y="51"><title>2016-02-10</title></rect><rect class="day q6-11" width="17" height="17" x="102" y="68"><title>2016-02-11</title></rect><rect class="day q6-11" width="17" height="17" x="102" y="85"><title>2016-02-12</title></rect><rect class="day q6-11" width="17" height="17" x="102" y="102"><title>2016-02-13</title></rect><rect class="day q6-11" width="17" height="17" x="119" y="0"><title>2016-02-14</title></rect><rect class="day q6-11" width="17" height="17" x="119" y="17"><title>2016-02-15</title></rect><rect class="day q6-11" width="17" height="17" x="119" y="34"><title>2016-02-16</title></rect><rect class="day q6-11" width="17" height="17" x="119" y="51"><title>2016-02-17</title></rect><rect class="day q6-11" width="17" height="17" x="119" y="68"><title>2016-02-18</title></rect><rect class="day q6-11" width="17" height="17" x="119" y="85"><title>2016-02-19</title></rect><rect class="day q6-11" width="17" height="17" x="119" y="102"><title>2016-02-20</title></rect><rect class="day q6-11" width="17" height="17" x="136" y="0"><title>2016-02-21</title></rect><rect class="day q6-11" width="17" height="17" x="136" y="17"><title>2016-02-22</title></rect><rect class="day q6-11" width="17" height="17" x="136" y="34"><title>2016-02-23</title></rect><rect class="day q6-11" width="17" height="17" x="136" y="51"><title>2016-02-24</title></rect><rect class="day q6-11" width="17" height="17" x="136" y="68"><title>2016-02-25</title></rect><rect class="day q6-11" width="17" height="17" x="136" y="85"><title>2016-02-26</title></rect><rect class="day q6-11" width="17" height="17" x="136" y="102"><title>2016-02-27</title></rect><rect class="day q6-11" width="17" height="17" x="153" y="0"><title>2016-02-28</title></rect><rect class="day q6-11" width="17" height="17" x="153" y="17"><title>2016-02-29</title></rect><rect class="day q6-11" width="17" height="17" x="153" y="34"><title>2016-03-01</title></rect><rect class="day q6-11" width="17" height="17" x="153" y="51"><title>2016-03-02</title></rect><rect class="day q6-11" width="17" height="17" x="153" y="68"><title>2016-03-03</title></rect><rect class="day q6-11" width="17" height="17" x="153" y="85"><title>2016-03-04</title></rect><rect class="day q6-11" width="17" height="17" x="153" y="102"><title>2016-03-05</title></rect><rect class="day q6-11" width="17" height="17" x="170" y="0"><title>2016-03-06</title></rect><rect class="day q6-11" width="17" height="17" x="170" y="17"><title>2016-03-07</title></rect><rect class="day q6-11" width="17" height="17" x="170" y="34"><title>2016-03-08</title></rect><rect class="day q6-11" width="17" height="17" x="170" y="51"><title>2016-03-09</title></rect><rect class="day q6-11" width="17" height="17" x="170" y="68"><title>2016-03-10</title></rect><rect class="day q6-11" width="17" height="17" x="170" y="85"><title>2016-03-11</title></rect><rect class="day q6-11" width="17" height="17" x="170" y="102"><title>2016-03-12</title></rect><rect class="day q6-11" width="17" height="17" x="187" y="0"><title>2016-03-13</title></rect><rect class="day q6-11" width="17" height="17" x="187" y="17"><title>2016-03-14</title></rect><rect class="day q6-11" width="17" height="17" x="187" y="34"><title>2016-03-15</title></rect><rect class="day q6-11" width="17" height="17" x="187" y="51"><title>2016-03-16</title></rect><rect class="day q6-11" width="17" height="17" x="187" y="68"><title>2016-03-17</title></rect><rect class="day q6-11" width="17" height="17" x="187" y="85"><title>2016-03-18</title></rect><rect class="day q6-11" width="17" height="17" x="187" y="102"><title>2016-03-19</title></rect><rect class="day q6-11" width="17" height="17" x="204" y="0"><title>2016-03-20</title></rect><rect class="day q6-11" width="17" height="17" x="204" y="17"><title>2016-03-21</title></rect><rect class="day q6-11" width="17" height="17" x="204" y="34"><title>2016-03-22</title></rect><rect class="day q6-11" width="17" height="17" x="204" y="51"><title>2016-03-23</title></rect><rect class="day q6-11" width="17" height="17" x="204" y="68"><title>2016-03-24</title></rect><rect class="day q6-11" width="17" height="17" x="204" y="85"><title>2016-03-25</title></rect><rect class="day q6-11" width="17" height="17" x="204" y="102"><title>2016-03-26</title></rect><rect class="day q6-11" width="17" height="17" x="221" y="0"><title>2016-03-27</title></rect><rect class="day q6-11" width="17" height="17" x="221" y="17"><title>2016-03-28</title></rect><rect class="day q6-11" width="17" height="17" x="221" y="34"><title>2016-03-29</title></rect><rect class="day q6-11" width="17" height="17" x="221" y="51"><title>2016-03-30</title></rect><rect class="day q6-11" width="17" height="17" x="221" y="68"><title>2016-03-31</title></rect><rect class="day q6-11" width="17" height="17" x="221" y="85"><title>2016-04-01</title></rect><rect class="day q6-11" width="17" height="17" x="221" y="102"><title>2016-04-02</title></rect><rect class="day q6-11" width="17" height="17" x="238" y="0"><title>2016-04-03</title></rect><rect class="day q6-11" width="17" height="17" x="238" y="17"><title>2016-04-04</title></rect><rect class="day q6-11" width="17" height="17" x="238" y="34"><title>2016-04-05</title></rect><rect class="day q6-11" width="17" height="17" x="238" y="51"><title>2016-04-06</title></rect><rect class="day q6-11" width="17" height="17" x="238" y="68"><title>2016-04-07</title></rect><rect class="day q6-11" width="17" height="17" x="238" y="85"><title>2016-04-08</title></rect><rect class="day q6-11" width="17" height="17" x="238" y="102"><title>2016-04-09</title></rect><rect class="day q6-11" width="17" height="17" x="255" y="0"><title>2016-04-10</title></rect><rect class="day q6-11" width="17" height="17" x="255" y="17"><title>2016-04-11</title></rect><rect class="day q6-11" width="17" height="17" x="255" y="34"><title>2016-04-12</title></rect><rect class="day q6-11" width="17" height="17" x="255" y="51"><title>2016-04-13</title></rect><rect class="day q6-11" width="17" height="17" x="255" y="68"><title>2016-04-14</title></rect><rect class="day q6-11" width="17" height="17" x="255" y="85"><title>2016-04-15</title></rect><rect class="day q6-11" width="17" height="17" x="255" y="102"><title>2016-04-16</title></rect><rect class="day q6-11" width="17" height="17" x="272" y="0"><title>2016-04-17</title></rect><rect class="day q6-11" width="17" height="17" x="272" y="17"><title>2016-04-18</title></rect><rect class="day q6-11" width="17" height="17" x="272" y="34"><title>2016-04-19</title></rect><rect class="day q6-11" width="17" height="17" x="272" y="51"><title>2016-04-20</title></rect><rect class="day q6-11" width="17" height="17" x="272" y="68"><title>2016-04-21</title></rect><rect class="day q6-11" width="17" height="17" x="272" y="85"><title>2016-04-22</title></rect><rect class="day q6-11" width="17" height="17" x="272" y="102"><title>2016-04-23</title></rect><rect class="day q6-11" width="17" height="17" x="289" y="0"><title>2016-04-24</title></rect><rect class="day q6-11" width="17" height="17" x="289" y="17"><title>2016-04-25</title></rect><rect class="day q6-11" width="17" height="17" x="289" y="34"><title>2016-04-26</title></rect><rect class="day q6-11" width="17" height="17" x="289" y="51"><title>2016-04-27</title></rect><rect class="day q6-11" width="17" height="17" x="289" y="68"><title>2016-04-28</title></rect><rect class="day q6-11" width="17" height="17" x="289" y="85"><title>2016-04-29</title></rect><rect class="day q6-11" width="17" height="17" x="289" y="102"><title>2016-04-30</title></rect><rect class="day q6-11" width="17" height="17" x="306" y="0"><title>2016-05-01</title></rect><rect class="day q6-11" width="17" height="17" x="306" y="17"><title>2016-05-02</title></rect><rect class="day q6-11" width="17" height="17" x="306" y="34"><title>2016-05-03</title></rect><rect class="day q6-11" width="17" height="17" x="306" y="51"><title>2016-05-04</title></rect><rect class="day q6-11" width="17" height="17" x="306" y="68"><title>2016-05-05</title></rect><rect class="day q6-11" width="17" height="17" x="306" y="85"><title>2016-05-06</title></rect><rect class="day q6-11" width="17" height="17" x="306" y="102"><title>2016-05-07</title></rect><rect class="day q6-11" width="17" height="17" x="323" y="0"><title>2016-05-08</title></rect><rect class="day q6-11" width="17" height="17" x="323" y="17"><title>2016-05-09</title></rect><rect class="day q6-11" width="17" height="17" x="323" y="34"><title>2016-05-10</title></rect><rect class="day q6-11" width="17" height="17" x="323" y="51"><title>2016-05-11</title></rect><rect class="day q6-11" width="17" height="17" x="323" y="68"><title>2016-05-12</title></rect><rect class="day q6-11" width="17" height="17" x="323" y="85"><title>2016-05-13</title></rect><rect class="day q6-11" width="17" height="17" x="323" y="102"><title>2016-05-14</title></rect><rect class="day q6-11" width="17" height="17" x="340" y="0"><title>2016-05-15</title></rect><rect class="day q6-11" width="17" height="17" x="340" y="17"><title>2016-05-16</title></rect><rect class="day q6-11" width="17" height="17" x="340" y="34"><title>2016-05-17</title></rect><rect class="day q6-11" width="17" height="17" x="340" y="51"><title>2016-05-18</title></rect><rect class="day q6-11" width="17" height="17" x="340" y="68"><title>2016-05-19</title></rect><rect class="day q6-11" width="17" height="17" x="340" y="85"><title>2016-05-20</title></rect><rect class="day q6-11" width="17" height="17" x="340" y="102"><title>2016-05-21</title></rect><rect class="day q6-11" width="17" height="17" x="357" y="0"><title>2016-05-22</title></rect><rect class="day q6-11" width="17" height="17" x="357" y="17"><title>2016-05-23</title></rect><rect class="day q6-11" width="17" height="17" x="357" y="34"><title>2016-05-24</title></rect><rect class="day q6-11" width="17" height="17" x="357" y="51"><title>2016-05-25</title></rect><rect class="day q6-11" width="17" height="17" x="357" y="68"><title>2016-05-26</title></rect><rect class="day q6-11" width="17" height="17" x="357" y="85"><title>2016-05-27</title></rect><rect class="day q6-11" width="17" height="17" x="357" y="102"><title>2016-05-28</title></rect><rect class="day q6-11" width="17" height="17" x="374" y="0"><title>2016-05-29</title></rect><rect class="day q6-11" width="17" height="17" x="374" y="17"><title>2016-05-30</title></rect><rect class="day q6-11" width="17" height="17" x="374" y="34"><title>2016-05-31</title></rect><rect class="day q6-11" width="17" height="17" x="374" y="51"><title>2016-06-01</title></rect><rect class="day q6-11" width="17" height="17" x="374" y="68"><title>2016-06-02</title></rect><rect class="day q6-11" width="17" height="17" x="374" y="85"><title>2016-06-03</title></rect><rect class="day q6-11" width="17" height="17" x="374" y="102"><title>2016-06-04</title></rect><rect class="day q6-11" width="17" height="17" x="391" y="0"><title>2016-06-05</title></rect><rect class="day q6-11" width="17" height="17" x="391" y="17"><title>2016-06-06</title></rect><rect class="day q6-11" width="17" height="17" x="391" y="34"><title>2016-06-07</title></rect><rect class="day q6-11" width="17" height="17" x="391" y="51"><title>2016-06-08</title></rect><rect class="day q6-11" width="17" height="17" x="391" y="68"><title>2016-06-09</title></rect><rect class="day q6-11" width="17" height="17" x="391" y="85"><title>2016-06-10</title></rect><rect class="day q6-11" width="17" height="17" x="391" y="102"><title>2016-06-11</title></rect><rect class="day q6-11" width="17" height="17" x="408" y="0"><title>2016-06-12</title></rect><rect class="day q6-11" width="17" height="17" x="408" y="17"><title>2016-06-13</title></rect><rect class="day q6-11" width="17" height="17" x="408" y="34"><title>2016-06-14</title></rect><rect class="day q6-11" width="17" height="17" x="408" y="51"><title>2016-06-15</title></rect><rect class="day q6-11" width="17" height="17" x="408" y="68"><title>2016-06-16</title></rect><rect class="day q6-11" width="17" height="17" x="408" y="85"><title>2016-06-17</title></rect><rect class="day q6-11" width="17" height="17" x="408" y="102"><title>2016-06-18</title></rect><rect class="day q6-11" width="17" height="17" x="425" y="0"><title>2016-06-19</title></rect><rect class="day q6-11" width="17" height="17" x="425" y="17"><title>2016-06-20</title></rect><rect class="day q6-11" width="17" height="17" x="425" y="34"><title>2016-06-21</title></rect><rect class="day q6-11" width="17" height="17" x="425" y="51"><title>2016-06-22</title></rect><rect class="day q6-11" width="17" height="17" x="425" y="68"><title>2016-06-23</title></rect><rect class="day q6-11" width="17" height="17" x="425" y="85"><title>2016-06-24</title></rect><rect class="day q6-11" width="17" height="17" x="425" y="102"><title>2016-06-25</title></rect><rect class="day q6-11" width="17" height="17" x="442" y="0"><title>2016-06-26</title></rect><rect class="day q6-11" width="17" height="17" x="442" y="17"><title>2016-06-27</title></rect><rect class="day q6-11" width="17" height="17" x="442" y="34"><title>2016-06-28</title></rect><rect class="day q6-11" width="17" height="17" x="442" y="51"><title>2016-06-29</title></rect><rect class="day q6-11" width="17" height="17" x="442" y="68"><title>2016-06-30</title></rect><rect class="day q6-11" width="17" height="17" x="442" y="85"><title>2016-07-01</title></rect><rect class="day q6-11" width="17" height="17" x="442" y="102"><title>2016-07-02</title></rect><rect class="day q6-11" width="17" height="17" x="459" y="0"><title>2016-07-03</title></rect><rect class="day q6-11" width="17" height="17" x="459" y="17"><title>2016-07-04</title></rect><rect class="day q6-11" width="17" height="17" x="459" y="34"><title>2016-07-05</title></rect><rect class="day q6-11" width="17" height="17" x="459" y="51"><title>2016-07-06</title></rect><rect class="day q6-11" width="17" height="17" x="459" y="68"><title>2016-07-07</title></rect><rect class="day q6-11" width="17" height="17" x="459" y="85"><title>2016-07-08</title></rect><rect class="day q6-11" width="17" height="17" x="459" y="102"><title>2016-07-09</title></rect><rect class="day q6-11" width="17" height="17" x="476" y="0"><title>2016-07-10</title></rect><rect class="day q6-11" width="17" height="17" x="476" y="17"><title>2016-07-11</title></rect><rect class="day q6-11" width="17" height="17" x="476" y="34"><title>2016-07-12</title></rect><rect class="day q6-11" width="17" height="17" x="476" y="51"><title>2016-07-13</title></rect><rect class="day q6-11" width="17" height="17" x="476" y="68"><title>2016-07-14</title></rect><rect class="day q6-11" width="17" height="17" x="476" y="85"><title>2016-07-15</title></rect><rect class="day q6-11" width="17" height="17" x="476" y="102"><title>2016-07-16</title></rect><rect class="day q6-11" width="17" height="17" x="493" y="0"><title>2016-07-17</title></rect><rect class="day q6-11" width="17" height="17" x="493" y="17"><title>2016-07-18</title></rect><rect class="day q6-11" width="17" height="17" x="493" y="34"><title>2016-07-19</title></rect><rect class="day q6-11" width="17" height="17" x="493" y="51"><title>2016-07-20</title></rect><rect class="day q6-11" width="17" height="17" x="493" y="68"><title>2016-07-21</title></rect><rect class="day q6-11" width="17" height="17" x="493" y="85"><title>2016-07-22</title></rect><rect class="day q6-11" width="17" height="17" x="493" y="102"><title>2016-07-23</title></rect><rect class="day q6-11" width="17" height="17" x="510" y="0"><title>2016-07-24</title></rect><rect class="day q6-11" width="17" height="17" x="510" y="17"><title>2016-07-25</title></rect><rect class="day q6-11" width="17" height="17" x="510" y="34"><title>2016-07-26</title></rect><rect class="day q6-11" width="17" height="17" x="510" y="51"><title>2016-07-27</title></rect><rect class="day q6-11" width="17" height="17" x="510" y="68"><title>2016-07-28</title></rect><rect class="day q6-11" width="17" height="17" x="510" y="85"><title>2016-07-29</title></rect><rect class="day q6-11" width="17" height="17" x="510" y="102"><title>2016-07-30</title></rect><rect class="day q6-11" width="17" height="17" x="527" y="0"><title>2016-07-31</title></rect><rect class="day q6-11" width="17" height="17" x="527" y="17"><title>2016-08-01</title></rect><rect class="day q6-11" width="17" height="17" x="527" y="34"><title>2016-08-02</title></rect><rect class="day q6-11" width="17" height="17" x="527" y="51"><title>2016-08-03</title></rect><rect class="day q6-11" width="17" height="17" x="527" y="68"><title>2016-08-04</title></rect><rect class="day q6-11" width="17" height="17" x="527" y="85"><title>2016-08-05</title></rect><rect class="day q6-11" width="17" height="17" x="527" y="102"><title>2016-08-06</title></rect><rect class="day q6-11" width="17" height="17" x="544" y="0"><title>2016-08-07</title></rect><rect class="day q6-11" width="17" height="17" x="544" y="17"><title>2016-08-08</title></rect><rect class="day q6-11" width="17" height="17" x="544" y="34"><title>2016-08-09</title></rect><rect class="day q6-11" width="17" height="17" x="544" y="51"><title>2016-08-10</title></rect><rect class="day q6-11" width="17" height="17" x="544" y="68"><title>2016-08-11</title></rect><rect class="day q6-11" width="17" height="17" x="544" y="85"><title>2016-08-12</title></rect><rect class="day q6-11" width="17" height="17" x="544" y="102"><title>2016-08-13</title></rect><rect class="day q6-11" width="17" height="17" x="561" y="0"><title>2016-08-14</title></rect><rect class="day q6-11" width="17" height="17" x="561" y="17"><title>2016-08-15</title></rect><rect class="day q6-11" width="17" height="17" x="561" y="34"><title>2016-08-16</title></rect><rect class="day q6-11" width="17" height="17" x="561" y="51"><title>2016-08-17</title></rect><rect class="day q6-11" width="17" height="17" x="561" y="68"><title>2016-08-18</title></rect><rect class="day q6-11" width="17" height="17" x="561" y="85"><title>2016-08-19</title></rect><rect class="day q6-11" width="17" height="17" x="561" y="102"><title>2016-08-20</title></rect><rect class="day q6-11" width="17" height="17" x="578" y="0"><title>2016-08-21</title></rect><rect class="day q6-11" width="17" height="17" x="578" y="17"><title>2016-08-22</title></rect><rect class="day q6-11" width="17" height="17" x="578" y="34"><title>2016-08-23</title></rect><rect class="day q6-11" width="17" height="17" x="578" y="51"><title>2016-08-24</title></rect><rect class="day q6-11" width="17" height="17" x="578" y="68"><title>2016-08-25</title></rect><rect class="day q6-11" width="17" height="17" x="578" y="85"><title>2016-08-26</title></rect><rect class="day q6-11" width="17" height="17" x="578" y="102"><title>2016-08-27</title></rect><rect class="day q6-11" width="17" height="17" x="595" y="0"><title>2016-08-28</title></rect><rect class="day q6-11" width="17" height="17" x="595" y="17"><title>2016-08-29</title></rect><rect class="day q6-11" width="17" height="17" x="595" y="34"><title>2016-08-30</title></rect><rect class="day q6-11" width="17" height="17" x="595" y="51"><title>2016-08-31</title></rect><rect class="day q6-11" width="17" height="17" x="595" y="68"><title>2016-09-01</title></rect><rect class="day q6-11" width="17" height="17" x="595" y="85"><title>2016-09-02</title></rect><rect class="day q6-11" width="17" height="17" x="595" y="102"><title>2016-09-03</title></rect><rect class="day q6-11" width="17" height="17" x="612" y="0"><title>2016-09-04</title></rect><rect class="day q6-11" width="17" height="17" x="612" y="17"><title>2016-09-05</title></rect><rect class="day q6-11" width="17" height="17" x="612" y="34"><title>2016-09-06</title></rect><rect class="day q6-11" width="17" height="17" x="612" y="51"><title>2016-09-07</title></rect><rect class="day q6-11" width="17" height="17" x="612" y="68"><title>2016-09-08</title></rect><rect class="day q6-11" width="17" height="17" x="612" y="85"><title>2016-09-09</title></rect><rect class="day q6-11" width="17" height="17" x="612" y="102"><title>2016-09-10</title></rect><rect class="day q6-11" width="17" height="17" x="629" y="0"><title>2016-09-11</title></rect><rect class="day q6-11" width="17" height="17" x="629" y="17"><title>2016-09-12</title></rect><rect class="day q6-11" width="17" height="17" x="629" y="34"><title>2016-09-13</title></rect><rect class="day q6-11" width="17" height="17" x="629" y="51"><title>2016-09-14</title></rect><rect class="day q6-11" width="17" height="17" x="629" y="68"><title>2016-09-15</title></rect><rect class="day q6-11" width="17" height="17" x="629" y="85"><title>2016-09-16</title></rect><rect class="day q6-11" width="17" height="17" x="629" y="102"><title>2016-09-17</title></rect><rect class="day q6-11" width="17" height="17" x="646" y="0"><title>2016-09-18</title></rect><rect class="day q6-11" width="17" height="17" x="646" y="17"><title>2016-09-19</title></rect><rect class="day q6-11" width="17" height="17" x="646" y="34"><title>2016-09-20</title></rect><rect class="day q6-11" width="17" height="17" x="646" y="51"><title>2016-09-21</title></rect><rect class="day q6-11" width="17" height="17" x="646" y="68"><title>2016-09-22</title></rect><rect class="day q6-11" width="17" height="17" x="646" y="85"><title>2016-09-23</title></rect><rect class="day q6-11" width="17" height="17" x="646" y="102"><title>2016-09-24</title></rect><rect class="day q6-11" width="17" height="17" x="663" y="0"><title>2016-09-25</title></rect><rect class="day q6-11" width="17" height="17" x="663" y="17"><title>2016-09-26</title></rect><rect class="day q6-11" width="17" height="17" x="663" y="34"><title>2016-09-27</title></rect><rect class="day q6-11" width="17" height="17" x="663" y="51"><title>2016-09-28</title></rect><rect class="day q6-11" width="17" height="17" x="663" y="68"><title>2016-09-29</title></rect><rect class="day q6-11" width="17" height="17" x="663" y="85"><title>2016-09-30</title></rect><rect class="day q6-11" width="17" height="17" x="663" y="102"><title>2016-10-01</title></rect><rect class="day q6-11" width="17" height="17" x="680" y="0"><title>2016-10-02</title></rect><rect class="day q6-11" width="17" height="17" x="680" y="17"><title>2016-10-03</title></rect><rect class="day q6-11" width="17" height="17" x="680" y="34"><title>2016-10-04</title></rect><rect class="day q6-11" width="17" height="17" x="680" y="51"><title>2016-10-05</title></rect><rect class="day q6-11" width="17" height="17" x="680" y="68"><title>2016-10-06</title></rect><rect class="day q6-11" width="17" height="17" x="680" y="85"><title>2016-10-07</title></rect><rect class="day q6-11" width="17" height="17" x="680" y="102"><title>2016-10-08</title></rect><rect class="day q6-11" width="17" height="17" x="697" y="0"><title>2016-10-09</title></rect><rect class="day q6-11" width="17" height="17" x="697" y="17"><title>2016-10-10</title></rect><rect class="day q4-11" width="17" height="17" x="697" y="34"><title>2016-10-11: catastrophising</title></rect><rect class="day q6-11" width="17" height="17" x="697" y="51"><title>2016-10-12</title></rect><rect class="day q6-11" width="17" height="17" x="697" y="68"><title>2016-10-13</title></rect><rect class="day q6-11" width="17" height="17" x="697" y="85"><title>2016-10-14</title></rect><rect class="day q6-11" width="17" height="17" x="697" y="102"><title>2016-10-15</title></rect><rect class="day q6-11" width="17" height="17" x="714" y="0"><title>2016-10-16</title></rect><rect class="day q6-11" width="17" height="17" x="714" y="17"><title>2016-10-17</title></rect><rect class="day q6-11" width="17" height="17" x="714" y="34"><title>2016-10-18</title></rect><rect class="day q6-11" width="17" height="17" x="714" y="51"><title>2016-10-19</title></rect><rect class="day q6-11" width="17" height="17" x="714" y="68"><title>2016-10-20</title></rect><rect class="day q6-11" width="17" height="17" x="714" y="85"><title>2016-10-21</title></rect><rect class="day q6-11" width="17" height="17" x="714" y="102"><title>2016-10-22</title></rect><rect class="day q6-11" width="17" height="17" x="731" y="0"><title>2016-10-23</title></rect><rect class="day q6-11" width="17" height="17" x="731" y="17"><title>2016-10-24</title></rect><rect class="day q6-11" width="17" height="17" x="731" y="34"><title>2016-10-25</title></rect><rect class="day q3-11" width="17" height="17" x="731" y="51"><title>2016-10-26: Memories, judgements</title></rect><rect class="day" width="17" height="17" x="731" y="68"><title>2016-10-27</title></rect><rect class="day" width="17" height="17" x="731" y="85"><title>2016-10-28</title></rect><rect class="day" width="17" height="17" x="731" y="102"><title>2016-10-29</title></rect><rect class="day" width="17" height="17" x="748" y="0"><title>2016-10-30</title></rect><rect class="day" width="17" height="17" x="748" y="17"><title>2016-10-31</title></rect><rect class="day" width="17" height="17" x="748" y="34"><title>2016-11-01</title></rect><rect class="day" width="17" height="17" x="748" y="51"><title>2016-11-02</title></rect><rect class="day" width="17" height="17" x="748" y="68"><title>2016-11-03</title></rect><rect class="day" width="17" height="17" x="748" y="85"><title>2016-11-04</title></rect><rect class="day" width="17" height="17" x="748" y="102"><title>2016-11-05</title></rect><rect class="day" width="17" height="17" x="765" y="0"><title>2016-11-06</title></rect><rect class="day" width="17" height="17" x="765" y="17"><title>2016-11-07</title></rect><rect class="day" width="17" height="17" x="765" y="34"><title>2016-11-08</title></rect><rect class="day" width="17" height="17" x="765" y="51"><title>2016-11-09</title></rect><rect class="day" width="17" height="17" x="765" y="68"><title>2016-11-10</title></rect><rect class="day" width="17" height="17" x="765" y="85"><title>2016-11-11</title></rect><rect class="day" width="17" height="17" x="765" y="102"><title>2016-11-12</title></rect><rect class="day" width="17" height="17" x="782" y="0"><title>2016-11-13</title></rect><rect class="day" width="17" height="17" x="782" y="17"><title>2016-11-14</title></rect><rect class="day" width="17" height="17" x="782" y="34"><title>2016-11-15</title></rect><rect class="day" width="17" height="17" x="782" y="51"><title>2016-11-16</title></rect><rect class="day" width="17" height="17" x="782" y="68"><title>2016-11-17</title></rect><rect class="day" width="17" height="17" x="782" y="85"><title>2016-11-18</title></rect><rect class="day" width="17" height="17" x="782" y="102"><title>2016-11-19</title></rect><rect class="day" width="17" height="17" x="799" y="0"><title>2016-11-20</title></rect><rect class="day" width="17" height="17" x="799" y="17"><title>2016-11-21</title></rect><rect class="day" width="17" height="17" x="799" y="34"><title>2016-11-22</title></rect><rect class="day" width="17" height="17" x="799" y="51"><title>2016-11-23</title></rect><rect class="day" width="17" height="17" x="799" y="68"><title>2016-11-24</title></rect><rect class="day" width="17" height="17" x="799" y="85"><title>2016-11-25</title></rect><rect class="day" width="17" height="17" x="799" y="102"><title>2016-11-26</title></rect><rect class="day" width="17" height="17" x="816" y="0"><title>2016-11-27</title></rect><rect class="day" width="17" height="17" x="816" y="17"><title>2016-11-28</title></rect><rect class="day" width="17" height="17" x="816" y="34"><title>2016-11-29</title></rect><rect class="day" width="17" height="17" x="816" y="51"><title>2016-11-30</title></rect><rect class="day" width="17" height="17" x="816" y="68"><title>2016-12-01</title></rect><rect class="day" width="17" height="17" x="816" y="85"><title>2016-12-02</title></rect><rect class="day" width="17" height="17" x="816" y="102"><title>2016-12-03</title></rect><rect class="day" width="17" height="17" x="833" y="0"><title>2016-12-04</title></rect><rect class="day" width="17" height="17" x="833" y="17"><title>2016-12-05</title></rect><rect class="day" width="17" height="17" x="833" y="34"><title>2016-12-06</title></rect><rect class="day" width="17" height="17" x="833" y="51"><title>2016-12-07</title></rect><rect class="day" width="17" height="17" x="833" y="68"><title>2016-12-08</title></rect><rect class="day" width="17" height="17" x="833" y="85"><title>2016-12-09</title></rect><rect class="day" width="17" height="17" x="833" y="102"><title>2016-12-10</title></rect><rect class="day" width="17" height="17" x="850" y="0"><title>2016-12-11</title></rect><rect class="day" width="17" height="17" x="850" y="17"><title>2016-12-12</title></rect><rect class="day" width="17" height="17" x="850" y="34"><title>2016-12-13</title></rect><rect class="day" width="17" height="17" x="850" y="51"><title>2016-12-14</title></rect><rect class="day" width="17" height="17" x="850" y="68"><title>2016-12-15</title></rect><rect class="day" width="17" height="17" x="850" y="85"><title>2016-12-16</title></rect><rect class="day" width="17" height="17" x="850" y="102"><title>2016-12-17</title></rect><rect class="day" width="17" height="17" x="867" y="0"><title>2016-12-18</title></rect><rect class="day" width="17" height="17" x="867" y="17"><title>2016-12-19</title></rect><rect class="day" width="17" height="17" x="867" y="34"><title>2016-12-20</title></rect><rect class="day" width="17" height="17" x="867" y="51"><title>2016-12-21</title></rect><rect class="day" width="17" height="17" x="867" y="68"><title>2016-12-22</title></rect><rect class="day" width="17" height="17" x="867" y="85"><title>2016-12-23</title></rect><rect class="day" width="17" height="17" x="867" y="102"><title>2016-12-24</title></rect><rect class="day" width="17" height="17" x="884" y="0"><title>2016-12-25</title></rect><rect class="day" width="17" height="17" x="884" y="17"><title>2016-12-26</title></rect><rect class="day" width="17" height="17" x="884" y="34"><title>2016-12-27</title></rect><rect class="day" width="17" height="17" x="884" y="51"><title>2016-12-28</title></rect><rect class="day" width="17" height="17" x="884" y="68"><title>2016-12-29</title></rect><rect class="day" width="17" height="17" x="884" y="85"><title>2016-12-30</title></rect><rect class="day" width="17" height="17" x="884" y="102"><title>2016-12-31</title></rect><path class="month" d="M17,85H0V119H85V17H102V0H17Z"></path><path class="month" d="M102,17H85V119H153V34H170V0H102Z"></path><path class="month" d="M170,34H153V119H221V85H238V0H170Z"></path><path class="month" d="M238,85H221V119H289V119H306V0H238Z"></path><path class="month" d="M323,0H306V119H374V51H391V0H323Z"></path><path class="month" d="M391,51H374V119H442V85H459V0H391Z"></path><path class="month" d="M459,85H442V119H527V17H544V0H459Z"></path><path class="month" d="M544,17H527V119H595V68H612V0H544Z"></path><path class="month" d="M612,68H595V119H663V102H680V0H612Z"></path><path class="month" d="M680,102H663V119H748V34H765V0H680Z"></path><path class="month" d="M765,34H748V119H816V68H833V0H765Z"></path><path class="month" d="M833,68H816V119H884V119H901V0H833Z"></path></g></svg>